<mxfile host="app.diagrams.net" agent="Mozilla/5.0 (X11; Ubuntu; Linux x86_64; rv:134.0) Gecko/20100101 Firefox/134.0" version="26.0.9">
  <diagram name="Page-1" id="TXLLomuJBvg7YzJiD7V0">
    <mxGraphModel dx="1044" dy="915" grid="1" gridSize="10" guides="1" tooltips="1" connect="1" arrows="1" fold="1" page="1" pageScale="1" pageWidth="850" pageHeight="1100" math="0" shadow="0">
      <root>
        <mxCell id="0" />
        <mxCell id="1" parent="0" />
        <mxCell id="yPKGFPrKtIUm3aOATeyo-23" value="" style="edgeStyle=orthogonalEdgeStyle;rounded=0;orthogonalLoop=1;jettySize=auto;html=1;" edge="1" parent="1" source="yPKGFPrKtIUm3aOATeyo-1" target="yPKGFPrKtIUm3aOATeyo-2">
          <mxGeometry relative="1" as="geometry" />
        </mxCell>
        <mxCell id="yPKGFPrKtIUm3aOATeyo-1" value="START" style="ellipse;whiteSpace=wrap;html=1;" vertex="1" parent="1">
          <mxGeometry x="340" y="10" width="120" height="80" as="geometry" />
        </mxCell>
        <mxCell id="yPKGFPrKtIUm3aOATeyo-25" style="edgeStyle=orthogonalEdgeStyle;rounded=0;orthogonalLoop=1;jettySize=auto;html=1;entryX=0.5;entryY=0;entryDx=0;entryDy=0;" edge="1" parent="1" source="yPKGFPrKtIUm3aOATeyo-2" target="yPKGFPrKtIUm3aOATeyo-3">
          <mxGeometry relative="1" as="geometry" />
        </mxCell>
        <mxCell id="yPKGFPrKtIUm3aOATeyo-2" value="Read Age" style="shape=parallelogram;perimeter=parallelogramPerimeter;whiteSpace=wrap;html=1;fixedSize=1;" vertex="1" parent="1">
          <mxGeometry x="340" y="130" width="120" height="50" as="geometry" />
        </mxCell>
        <mxCell id="yPKGFPrKtIUm3aOATeyo-5" value="" style="edgeStyle=orthogonalEdgeStyle;rounded=0;orthogonalLoop=1;jettySize=auto;html=1;" edge="1" parent="1" source="yPKGFPrKtIUm3aOATeyo-3" target="yPKGFPrKtIUm3aOATeyo-4">
          <mxGeometry relative="1" as="geometry" />
        </mxCell>
        <mxCell id="yPKGFPrKtIUm3aOATeyo-29" value="TRUE" style="edgeLabel;html=1;align=center;verticalAlign=middle;resizable=0;points=[];" vertex="1" connectable="0" parent="yPKGFPrKtIUm3aOATeyo-5">
          <mxGeometry x="-0.45" y="2" relative="1" as="geometry">
            <mxPoint as="offset" />
          </mxGeometry>
        </mxCell>
        <mxCell id="yPKGFPrKtIUm3aOATeyo-12" style="edgeStyle=orthogonalEdgeStyle;rounded=0;orthogonalLoop=1;jettySize=auto;html=1;entryX=0.5;entryY=0;entryDx=0;entryDy=0;" edge="1" parent="1" source="yPKGFPrKtIUm3aOATeyo-3" target="yPKGFPrKtIUm3aOATeyo-7">
          <mxGeometry relative="1" as="geometry" />
        </mxCell>
        <mxCell id="yPKGFPrKtIUm3aOATeyo-14" value="FALSE" style="edgeLabel;html=1;align=center;verticalAlign=middle;resizable=0;points=[];" vertex="1" connectable="0" parent="yPKGFPrKtIUm3aOATeyo-12">
          <mxGeometry x="-0.55" y="-3" relative="1" as="geometry">
            <mxPoint as="offset" />
          </mxGeometry>
        </mxCell>
        <mxCell id="yPKGFPrKtIUm3aOATeyo-3" value="&lt;div&gt;Age &amp;gt; = 18&lt;/div&gt;&lt;div&gt;AND&lt;/div&gt;&lt;div&gt;Age &amp;lt; = 65&lt;br&gt;&lt;/div&gt;" style="rhombus;whiteSpace=wrap;html=1;" vertex="1" parent="1">
          <mxGeometry x="360" y="240" width="80" height="80" as="geometry" />
        </mxCell>
        <mxCell id="yPKGFPrKtIUm3aOATeyo-31" style="edgeStyle=orthogonalEdgeStyle;rounded=0;orthogonalLoop=1;jettySize=auto;html=1;" edge="1" parent="1" source="yPKGFPrKtIUm3aOATeyo-4">
          <mxGeometry relative="1" as="geometry">
            <mxPoint x="420" y="740" as="targetPoint" />
            <Array as="points">
              <mxPoint x="681" y="270" />
            </Array>
          </mxGeometry>
        </mxCell>
        <mxCell id="yPKGFPrKtIUm3aOATeyo-4" value="&lt;div&gt;Write&quot;ammesso&quot;&lt;/div&gt;" style="shape=parallelogram;perimeter=parallelogramPerimeter;whiteSpace=wrap;html=1;fixedSize=1;" vertex="1" parent="1">
          <mxGeometry x="540" y="240" width="120" height="60" as="geometry" />
        </mxCell>
        <mxCell id="yPKGFPrKtIUm3aOATeyo-9" value="" style="edgeStyle=orthogonalEdgeStyle;rounded=0;orthogonalLoop=1;jettySize=auto;html=1;" edge="1" parent="1" source="yPKGFPrKtIUm3aOATeyo-7" target="yPKGFPrKtIUm3aOATeyo-8">
          <mxGeometry relative="1" as="geometry" />
        </mxCell>
        <mxCell id="yPKGFPrKtIUm3aOATeyo-16" value="" style="edgeStyle=orthogonalEdgeStyle;rounded=0;orthogonalLoop=1;jettySize=auto;html=1;" edge="1" parent="1" source="yPKGFPrKtIUm3aOATeyo-7" target="yPKGFPrKtIUm3aOATeyo-15">
          <mxGeometry relative="1" as="geometry" />
        </mxCell>
        <mxCell id="yPKGFPrKtIUm3aOATeyo-7" value="Age &amp;lt; 18" style="rhombus;whiteSpace=wrap;html=1;" vertex="1" parent="1">
          <mxGeometry x="350" y="350" width="80" height="80" as="geometry" />
        </mxCell>
        <mxCell id="yPKGFPrKtIUm3aOATeyo-34" style="edgeStyle=orthogonalEdgeStyle;rounded=0;orthogonalLoop=1;jettySize=auto;html=1;" edge="1" parent="1" source="yPKGFPrKtIUm3aOATeyo-8">
          <mxGeometry relative="1" as="geometry">
            <mxPoint x="400" y="710" as="targetPoint" />
            <Array as="points">
              <mxPoint x="540" y="560" />
              <mxPoint x="541" y="560" />
            </Array>
          </mxGeometry>
        </mxCell>
        <mxCell id="yPKGFPrKtIUm3aOATeyo-8" value="Write &quot;piccolo&quot;" style="shape=parallelogram;perimeter=parallelogramPerimeter;whiteSpace=wrap;html=1;fixedSize=1;" vertex="1" parent="1">
          <mxGeometry x="480" y="350" width="120" height="60" as="geometry" />
        </mxCell>
        <mxCell id="yPKGFPrKtIUm3aOATeyo-10" value="TRUE" style="text;html=1;align=center;verticalAlign=middle;resizable=0;points=[];autosize=1;strokeColor=none;fillColor=none;" vertex="1" parent="1">
          <mxGeometry x="430" y="368" width="60" height="30" as="geometry" />
        </mxCell>
        <mxCell id="yPKGFPrKtIUm3aOATeyo-19" value="" style="edgeStyle=orthogonalEdgeStyle;rounded=0;orthogonalLoop=1;jettySize=auto;html=1;" edge="1" parent="1" source="yPKGFPrKtIUm3aOATeyo-15" target="yPKGFPrKtIUm3aOATeyo-18">
          <mxGeometry relative="1" as="geometry" />
        </mxCell>
        <mxCell id="yPKGFPrKtIUm3aOATeyo-35" style="edgeStyle=orthogonalEdgeStyle;rounded=0;orthogonalLoop=1;jettySize=auto;html=1;" edge="1" parent="1" source="yPKGFPrKtIUm3aOATeyo-15" target="yPKGFPrKtIUm3aOATeyo-36">
          <mxGeometry relative="1" as="geometry">
            <mxPoint x="220" y="520" as="targetPoint" />
          </mxGeometry>
        </mxCell>
        <mxCell id="yPKGFPrKtIUm3aOATeyo-40" value="Text" style="edgeLabel;html=1;align=center;verticalAlign=middle;resizable=0;points=[];" vertex="1" connectable="0" parent="yPKGFPrKtIUm3aOATeyo-35">
          <mxGeometry x="0.0353" relative="1" as="geometry">
            <mxPoint as="offset" />
          </mxGeometry>
        </mxCell>
        <mxCell id="yPKGFPrKtIUm3aOATeyo-15" value="Age &amp;gt; 65" style="rhombus;whiteSpace=wrap;html=1;" vertex="1" parent="1">
          <mxGeometry x="340" y="480" width="80" height="80" as="geometry" />
        </mxCell>
        <mxCell id="yPKGFPrKtIUm3aOATeyo-17" value="FALSE" style="text;html=1;align=center;verticalAlign=middle;resizable=0;points=[];autosize=1;strokeColor=none;fillColor=none;" vertex="1" parent="1">
          <mxGeometry x="350" y="438" width="60" height="30" as="geometry" />
        </mxCell>
        <mxCell id="yPKGFPrKtIUm3aOATeyo-30" style="edgeStyle=orthogonalEdgeStyle;rounded=0;orthogonalLoop=1;jettySize=auto;html=1;" edge="1" parent="1" source="yPKGFPrKtIUm3aOATeyo-18">
          <mxGeometry relative="1" as="geometry">
            <mxPoint x="390" y="730" as="targetPoint" />
          </mxGeometry>
        </mxCell>
        <mxCell id="yPKGFPrKtIUm3aOATeyo-18" value="Write &quot;anziano&quot;" style="shape=parallelogram;perimeter=parallelogramPerimeter;whiteSpace=wrap;html=1;fixedSize=1;" vertex="1" parent="1">
          <mxGeometry x="330" y="600" width="120" height="60" as="geometry" />
        </mxCell>
        <mxCell id="yPKGFPrKtIUm3aOATeyo-20" value="TRUE" style="text;html=1;align=center;verticalAlign=middle;resizable=0;points=[];autosize=1;strokeColor=none;fillColor=none;" vertex="1" parent="1">
          <mxGeometry x="350" y="568" width="60" height="30" as="geometry" />
        </mxCell>
        <mxCell id="yPKGFPrKtIUm3aOATeyo-21" value="END" style="ellipse;whiteSpace=wrap;html=1;" vertex="1" parent="1">
          <mxGeometry x="340" y="760" width="120" height="80" as="geometry" />
        </mxCell>
        <mxCell id="yPKGFPrKtIUm3aOATeyo-32" value="" style="ellipse;whiteSpace=wrap;html=1;aspect=fixed;" vertex="1" parent="1">
          <mxGeometry x="390" y="730" width="20" height="20" as="geometry" />
        </mxCell>
        <mxCell id="yPKGFPrKtIUm3aOATeyo-39" style="edgeStyle=orthogonalEdgeStyle;rounded=0;orthogonalLoop=1;jettySize=auto;html=1;" edge="1" parent="1" source="yPKGFPrKtIUm3aOATeyo-36" target="yPKGFPrKtIUm3aOATeyo-2">
          <mxGeometry relative="1" as="geometry">
            <mxPoint x="230" y="160" as="targetPoint" />
            <Array as="points">
              <mxPoint x="210" y="331" />
              <mxPoint x="231" y="331" />
              <mxPoint x="231" y="155" />
            </Array>
          </mxGeometry>
        </mxCell>
        <mxCell id="yPKGFPrKtIUm3aOATeyo-36" value="Write &quot;errore&quot;" style="shape=parallelogram;perimeter=parallelogramPerimeter;whiteSpace=wrap;html=1;fixedSize=1;" vertex="1" parent="1">
          <mxGeometry x="150" y="500" width="120" height="50" as="geometry" />
        </mxCell>
      </root>
    </mxGraphModel>
  </diagram>
</mxfile>
